<svg width="160" height="160" viewBox="0 0 160 160" fill="none" xmlns="http://www.w3.org/2000/svg">
<g clip-path="url(#clip0_207_2474)">
<ellipse cx="11.1024" cy="10.8346" rx="11.1024" ry="10.8346" transform="matrix(-0.996417 0.0845743 0.0888394 0.996046 138.941 25.447)" fill="#F5AC4C"/>
<mask id="mask0_207_2474" style="mask-type:alpha" maskUnits="userSpaceOnUse" x="117" y="26" width="23" height="23">
<ellipse cx="11.1024" cy="10.8346" rx="11.1024" ry="10.8346" transform="matrix(-0.996417 0.0845741 0.0888391 0.996046 138.941 25.447)" fill="#F5AC4C"/>
</mask>
<g mask="url(#mask0_207_2474)">
<path d="M122.315 41.3708C122.487 41.3932 122.822 41.5 122.929 41.6149C123.064 41.5316 123.417 41.5146 123.588 41.537C124.174 41.6135 124.869 42.2529 124.625 42.5554C123.839 43.5438 121.509 43.29 120.998 42.0816C120.853 41.7284 121.704 41.291 122.315 41.3708Z" fill="white"/>
<ellipse cx="12.0922" cy="9.69866" rx="12.0922" ry="9.69866" transform="matrix(-0.996417 0.0845743 0.0888394 0.996046 133.22 13.1978)" fill="#151D51"/>
<ellipse cx="12.0922" cy="9.69866" rx="12.0922" ry="9.69866" transform="matrix(-0.996417 0.0845743 0.0888395 0.996046 149.588 20.3423)" fill="#151D51"/>
</g>
<rect width="6.75666" height="11.1645" rx="3.37833" transform="matrix(0.982426 -0.184367 0.193562 0.981542 127.084 42.5732)" fill="#F5AC4C"/>
<path fill-rule="evenodd" clip-rule="evenodd" d="M111.415 91.5147C111.493 91.1957 111.518 91.0937 111.512 91.1825L151.867 93.9855C151.47 99.2521 150.021 106.122 148.443 111.191C146.584 117.163 144.223 124.091 142.042 130.484L141.912 130.866C139.723 137.282 137.746 143.075 136.37 147.509C135.657 149.807 135.237 151.321 135.041 152.165C135.011 152.291 134.995 152.369 134.988 152.404C134.999 152.343 135.032 152.154 135.066 151.866C135.099 151.577 135.179 150.817 135.16 149.769C135.146 148.985 135.071 146.54 133.993 143.566L95.2068 157.631C94.0491 154.437 93.9321 151.692 93.9106 150.531C93.8844 149.107 93.9926 147.894 94.0876 147.08C94.2774 145.454 94.596 143.938 94.8578 142.813C95.3986 140.489 96.1728 137.839 96.9686 135.275C98.5196 130.278 100.658 124.012 102.742 117.905C102.827 117.656 102.912 117.407 102.996 117.158C105.219 110.643 107.389 104.264 109.052 98.9233C110.471 94.3644 111.203 92.3775 111.415 91.5147ZM134.984 152.424C134.984 152.424 134.985 152.418 134.988 152.404C134.986 152.417 134.984 152.424 134.984 152.424Z" fill="#151D51"/>
<path d="M127.465 60.4935C115.442 74.5389 87.8239 75.0242 69.0709 70.8294C50.318 66.6345 45.062 61.6894 27.4944 39.4107" stroke="#009796" stroke-width="19.8929"/>
<path d="M21.7171 18.3037C21.7171 11.0053 27.6337 5.08878 34.9321 5.08878H64.4353C71.7337 5.08878 77.6503 11.0053 77.6503 18.3038V73.9712C77.6503 81.2696 71.7337 87.1861 64.4353 87.1861H34.9321C27.6337 87.1861 21.7171 81.2696 21.7171 73.9711V18.3037Z" fill="white" stroke="#151D51" stroke-width="9.43927"/>
<path d="M55.4514 7.93359H60.4256L59.5916 8.02398C57.586 8.24133 55.7708 9.31072 54.6085 10.9596L55.4514 7.93359Z" fill="#151D51"/>
<path d="M44.5269 7.93359H39.4854L40.3194 8.02398C42.325 8.24133 44.1402 9.31072 45.3025 10.9596L44.5269 7.93359Z" fill="#151D51"/>
<ellipse cx="49.9562" cy="7.55608" rx="5.81615" ry="5.67376" fill="#151D51"/>
<path d="M34.0571 32.2245L50.3477 26.0906L66.6383 32.2245V46.1834C66.6383 53.9782 62.3772 61.1494 55.5311 64.8763L52.8917 66.3132C51.3056 67.1767 49.3897 67.1767 47.8036 66.3132L45.1642 64.8763C38.3181 61.1494 34.0571 53.9782 34.0571 46.1834V32.2245Z" fill="#5CD6C0"/>
<rect width="6.53619" height="14.1959" rx="3.26809" transform="matrix(0.71654 -0.697546 0.71654 0.697546 38.344 46.5244)" fill="#CEF3EC"/>
<rect width="6.44461" height="19.5234" rx="3.22231" transform="matrix(-0.734826 -0.678256 -0.697721 0.71637 62.7029 42.5806)" fill="white"/>
<path d="M156.042 72.8569C158.112 62.2619 150.588 52.2279 139.842 51.2519L132.057 50.5447C121.518 49.5875 112.344 57.7648 112.091 68.3431L111.544 91.1238L151.907 94.0204L156.042 72.8569Z" fill="#5CD6C0"/>
<path d="M146.422 65.2464C151.277 82.9214 140.383 101.126 122.09 105.908C103.796 110.69 85.0308 100.238 80.1759 82.5625" stroke="#5CD6C0" stroke-width="18.2352"/>
<ellipse cx="12.1999" cy="12.4712" rx="12.1999" ry="12.4712" transform="matrix(-0.243005 -0.970025 -0.97274 0.231899 93.37 85.2441)" fill="#F5AC4C"/>
<ellipse cx="12.4711" cy="12.7484" rx="12.4711" ry="12.7484" transform="matrix(-0.243005 -0.970025 -0.97274 0.231899 30.8371 41.6436)" fill="#F5AC4C"/>
<ellipse cx="141.684" cy="24.3038" rx="9.36936" ry="9.13997" fill="#151D51"/>
</g>
<defs>
<clipPath id="clip0_207_2474">
<rect width="160" height="160" fill="white"/>
</clipPath>
</defs>
</svg>
