<svg width="117" height="25" viewBox="0 0 117 25" fill="none" xmlns="http://www.w3.org/2000/svg">
<path d="M13.1093 11.3176C13.1189 10.5739 13.3153 9.84477 13.6803 9.19795C14.0453 8.55112 14.5671 8.00767 15.1971 7.61815C14.7969 7.04332 14.2689 6.57025 13.6551 6.23652C13.0413 5.9028 12.3586 5.71761 11.6612 5.69567C10.1735 5.53862 8.73128 6.59097 7.97318 6.59097C7.20041 6.59097 6.0332 5.71126 4.77631 5.73727C3.96332 5.76368 3.17099 6.00145 2.47653 6.4274C1.78207 6.85335 1.20917 7.45295 0.813629 8.16779C-0.899754 11.1512 0.378275 15.5359 2.01955 17.9474C2.84072 19.1283 3.80043 20.4474 5.05618 20.4006C6.28502 20.3494 6.74396 19.6126 8.22727 19.6126C9.69681 19.6126 10.1274 20.4006 11.4086 20.3709C12.7272 20.3494 13.558 19.1847 14.3504 17.9927C14.9404 17.1513 15.3944 16.2213 15.6956 15.2373C14.9295 14.9114 14.2758 14.366 13.8159 13.6689C13.356 12.9719 13.1102 12.1542 13.1093 11.3176Z" fill="#1D367C"/>
<path d="M10.6887 4.11013C11.4077 3.24211 11.7619 2.12643 11.6761 1C10.5777 1.11603 9.56308 1.64399 8.83441 2.47871C8.47815 2.88649 8.20528 3.36088 8.03142 3.87478C7.85756 4.38868 7.78612 4.93201 7.82117 5.47369C8.37057 5.47938 8.91409 5.35962 9.4108 5.12343C9.9075 4.88724 10.3444 4.54077 10.6887 4.11013Z" fill="#1D367C"/>
<path d="M32.2242 15.8414H26.2807L24.8534 20.08H22.3359L27.9655 4.39819H30.581L36.2106 20.08H33.6502L32.2242 15.8414ZM26.8962 13.8855H31.6074L29.285 7.00651H29.22L26.8962 13.8855Z" fill="#1D367C"/>
<path d="M48.3687 14.3644C48.3687 17.9174 46.4779 20.2001 43.6245 20.2001C42.9017 20.2381 42.1828 20.0706 41.5502 19.7169C40.9177 19.3631 40.3969 18.8373 40.0476 18.1997H39.9936V23.8627H37.6602V8.64713H39.9189V10.5488H39.9618C40.3271 9.91424 40.8567 9.39119 41.4941 9.03527C42.1315 8.67934 42.8529 8.50386 43.5816 8.5275C46.4668 8.52751 48.3687 10.8213 48.3687 14.3644ZM45.9703 14.3644C45.9703 12.0496 44.7808 10.5278 42.966 10.5278C41.1831 10.5278 39.9839 12.0817 39.9839 14.3644C39.9839 16.6681 41.1831 18.2109 42.966 18.2109C44.7808 18.2109 45.9703 16.7001 45.9703 14.3644Z" fill="#1D367C"/>
<path d="M60.8805 14.3644C60.8805 17.9173 58.9897 20.2 56.1362 20.2C55.4134 20.2381 54.6946 20.0706 54.062 19.7168C53.4294 19.3631 52.9086 18.8373 52.5594 18.1997H52.5054V23.8627H50.1719V8.64712H52.4306V10.5488H52.4735C52.8388 9.91423 53.3684 9.39118 54.0058 9.03526C54.6432 8.67934 55.3646 8.50386 56.0933 8.5275C58.9786 8.5275 60.8805 10.8213 60.8805 14.3644ZM58.482 14.3644C58.482 12.0496 57.2926 10.5278 55.4778 10.5278C53.6948 10.5278 52.4956 12.0817 52.4956 14.3644C52.4956 16.6681 53.6948 18.2108 55.4778 18.2108C57.2926 18.2108 58.482 16.7001 58.482 14.3644H58.482Z" fill="#1D367C"/>
<path d="M69.1506 15.7107C69.3235 17.2658 70.8256 18.2868 72.8783 18.2868C74.8451 18.2868 76.2602 17.2657 76.2602 15.8635C76.2602 14.6463 75.4067 13.9175 73.3859 13.418L71.3651 12.9284C68.5019 12.2329 67.1727 10.8862 67.1727 8.70092C67.1727 5.9952 69.5172 4.13672 72.8464 4.13672C76.1412 4.13672 78.3999 5.9952 78.4759 8.70092H76.1203C75.9793 7.13594 74.693 6.19129 72.8132 6.19129C70.9334 6.19129 69.6471 7.14705 69.6471 8.53814C69.6471 9.64681 70.4687 10.2992 72.4785 10.7986L74.1964 11.2228C77.3956 11.9837 78.7248 13.2762 78.7248 15.57C78.7248 18.5038 76.4011 20.3414 72.7053 20.3414C69.2474 20.3414 66.9127 18.547 66.7618 15.7106L69.1506 15.7107Z" fill="#1D367C"/>
<path d="M83.7592 5.94141V8.64712H85.921V10.5056H83.7592V16.8087C83.7592 17.7878 84.1921 18.2441 85.1424 18.2441C85.399 18.2396 85.6552 18.2215 85.91 18.1898V20.0372C85.4827 20.1175 85.0484 20.1539 84.6139 20.1458C82.3123 20.1458 81.4147 19.2763 81.4147 17.059V10.5056H79.7617V8.64712H81.4146V5.94141H83.7592Z" fill="#1D367C"/>
<path d="M87.1758 14.3637C87.1758 10.7664 89.2824 8.50586 92.5675 8.50586C95.8636 8.50586 97.9604 10.7663 97.9604 14.3637C97.9604 17.9709 95.8746 20.2216 92.5675 20.2216C89.2615 20.2216 87.1758 17.9709 87.1758 14.3637ZM95.5827 14.3637C95.5827 11.896 94.4583 10.4396 92.5675 10.4396C90.6766 10.4396 89.5534 11.9071 89.5534 14.3637C89.5534 16.8413 90.6766 18.2866 92.5675 18.2866C94.4583 18.2866 95.5827 16.8413 95.5827 14.3637H95.5827Z" fill="#1D367C"/>
<path d="M99.8828 8.64702H102.108V10.593H102.162C102.313 9.98526 102.667 9.44814 103.165 9.07196C103.663 8.69578 104.275 8.50348 104.897 8.52738C105.166 8.52643 105.434 8.55581 105.696 8.61494V10.8101C105.357 10.7058 105.003 10.6579 104.648 10.6683C104.309 10.6544 103.971 10.7146 103.657 10.8445C103.344 10.9744 103.061 11.1711 102.83 11.421C102.599 11.6709 102.425 11.9681 102.319 12.2922C102.213 12.6164 102.178 12.9597 102.216 13.2988V20.0803H99.8828L99.8828 8.64702Z" fill="#1D367C"/>
<path d="M116.454 16.7217C116.14 18.7972 114.13 20.2216 111.559 20.2216C108.252 20.2216 106.199 17.9931 106.199 14.418C106.199 10.8317 108.263 8.50586 111.461 8.50586C114.606 8.50586 116.584 10.6788 116.584 14.1454V14.9495H108.555V15.0913C108.518 15.5121 108.57 15.936 108.708 16.3348C108.847 16.7337 109.068 17.0984 109.357 17.4047C109.646 17.711 109.997 17.9519 110.386 18.1114C110.775 18.2709 111.193 18.3453 111.613 18.3298C112.164 18.3817 112.718 18.2533 113.191 17.9636C113.664 17.6738 114.031 17.2382 114.238 16.7216L116.454 16.7217ZM108.566 13.3093H114.249C114.27 12.931 114.213 12.5524 114.082 12.1972C113.95 11.8421 113.747 11.5181 113.485 11.2457C113.224 10.9732 112.909 10.7581 112.56 10.6139C112.212 10.4696 111.838 10.3994 111.461 10.4075C111.081 10.4052 110.704 10.4787 110.353 10.6236C110.001 10.7685 109.681 10.982 109.412 11.2517C109.143 11.5215 108.93 11.8422 108.784 12.1954C108.639 12.5485 108.565 12.9271 108.566 13.3093V13.3093Z" fill="#1D367C"/>
</svg>
