<svg width="18" height="18" viewBox="0 0 18 18" fill="none" xmlns="http://www.w3.org/2000/svg">
<path d="M11.6918 2C11.7243 2 11.7569 2 11.7914 2C11.8713 2.98731 11.4944 3.72503 11.0364 4.25925C10.587 4.78979 9.97166 5.30435 8.97636 5.22628C8.90996 4.25311 9.28743 3.5701 9.74481 3.03711C10.169 2.54038 10.9467 2.09836 11.6918 2Z" fill="#151D51"/>
<path d="M14.7067 12.2754C14.7067 12.2852 14.7067 12.2939 14.7067 12.3031C14.4269 13.1502 14.028 13.8763 13.5411 14.55C13.0966 15.1617 12.5519 15.9849 11.5794 15.9849C10.739 15.9849 10.1808 15.4445 9.31949 15.4298C8.40841 15.415 7.90738 15.8816 7.07438 15.999C6.97909 15.999 6.8838 15.999 6.79036 15.999C6.17867 15.9105 5.68501 15.4261 5.32538 14.9896C4.26491 13.6998 3.44543 12.0338 3.29297 9.90181C3.29297 9.69279 3.29297 9.48439 3.29297 9.27537C3.35752 7.74952 4.09892 6.50893 5.08439 5.90769C5.60448 5.58802 6.31945 5.31568 7.11557 5.4374C7.45676 5.49027 7.80533 5.60707 8.11087 5.72265C8.40042 5.83392 8.76252 6.03126 9.10555 6.02081C9.33793 6.01405 9.56909 5.89294 9.80331 5.80749C10.4894 5.55974 11.1619 5.27572 12.0484 5.40912C13.1138 5.57019 13.87 6.04356 14.3372 6.7739C13.4359 7.34747 12.7234 8.21183 12.8452 9.68787C12.9534 11.0287 13.7329 11.8131 14.7067 12.2754Z" fill="#151D51"/>
</svg>
