<svg width="18" height="18" viewBox="0 0 18 18" fill="none" xmlns="http://www.w3.org/2000/svg">
<path fill-rule="evenodd" clip-rule="evenodd" d="M2.6087 3.71289C2.27255 3.71289 2 3.9812 2 4.3122V12.7026C2 13.0336 2.27255 13.3019 2.6087 13.3019H6.86957V14.8395H6.26087C5.92472 14.8395 5.65217 15.1078 5.65217 15.4388C5.65217 15.7698 5.92472 16.0381 6.26087 16.0381H11.7391C12.0753 16.0381 12.3478 15.7698 12.3478 15.4388C12.3478 15.1078 12.0753 14.8395 11.7391 14.8395H11.1304V13.3019H15.3913C15.7275 13.3019 16 13.0336 16 12.7026V4.3122C16 3.9812 15.7275 3.71289 15.3913 3.71289H2.6087Z" fill="#151D51"/>
</svg>
