<svg width="24" height="24" viewBox="0 0 24 24" fill="none" xmlns="http://www.w3.org/2000/svg">
<g clip-path="url(#clip0_205_2437)">
<rect x="6.86646e-05" width="23.9987" height="24" rx="6" fill="#5CD6C0"/>
<rect x="1.17689" y="1.177" width="21.6449" height="21.6461" rx="5" fill="#5FE1CA"/>
<path d="M14.4345 3.69843C14.4345 3.11861 13.9626 2.64858 13.3806 2.64858H10.5701C9.98798 2.64858 9.51611 3.11861 9.51611 3.69843V7.47781C9.51611 8.05763 9.04425 8.52767 8.46217 8.52767H7.06077C6.13358 8.52767 5.65819 9.63434 6.2984 10.3024L11.2129 15.431C11.6281 15.8643 12.3225 15.8643 12.7377 15.431L17.6522 10.3024C18.2924 9.63434 17.8171 8.52767 16.8899 8.52767H15.4885C14.9064 8.52767 14.4345 8.05763 14.4345 7.47781V3.69843Z" fill="#483FDD"/>
<rect x="3.16074" y="14.9978" width="17.8224" height="4.458" rx="0.736338" fill="#7C42D5"/>
<path d="M4.3341 14.2132H5.3126V9.46864H4.43788V9.69104C4.43788 10.0617 4.2748 10.336 3.77813 10.336H3.2963V11.1144H4.3341V14.2132Z" fill="white"/>
<path d="M7.78417 14.2873C8.90352 14.2873 9.64481 13.4941 9.64481 11.8409C9.64481 10.1951 8.90352 9.38709 7.77676 9.38709C6.65741 9.38709 5.88647 10.1951 5.88647 11.8335C5.88647 13.4866 6.65741 14.2873 7.78417 14.2873ZM7.78417 13.4792C7.29492 13.4792 6.89462 13.0344 6.89462 11.8409C6.89462 10.6474 7.29492 10.1951 7.78417 10.1951C8.28084 10.1951 8.64407 10.6622 8.64407 11.8483C8.64407 13.0196 8.28825 13.4792 7.78417 13.4792Z" fill="white"/>
<path d="M11.9597 14.2873C13.0791 14.2873 13.8204 13.4941 13.8204 11.8409C13.8204 10.1951 13.0791 9.38709 11.9523 9.38709C10.833 9.38709 10.062 10.1951 10.062 11.8335C10.062 13.4866 10.833 14.2873 11.9597 14.2873ZM11.9597 13.4792C11.4705 13.4792 11.0702 13.0344 11.0702 11.8409C11.0702 10.6474 11.4705 10.1951 11.9597 10.1951C12.4564 10.1951 12.8196 10.6622 12.8196 11.8483C12.8196 13.0196 12.4638 13.4792 11.9597 13.4792Z" fill="white"/>
<path d="M17.7945 10.5065H16.653L15.3186 11.789H15.2593V8.94971H14.3105V14.2132H15.2593V12.9751L15.6448 12.6045L16.7493 14.2132H17.7945L16.2823 11.9817L17.7945 10.5065Z" fill="white"/>
<path d="M21.217 11.7519H19.905V10.5065H19.0747V11.7519H17.7478V12.5229H19.0747V13.7684H19.905V12.5229H21.217V11.7519Z" fill="white"/>
<path d="M5.30525 15.7561V16.5889C5.21776 16.4917 5.05575 16.4042 4.83541 16.4042C4.41093 16.4042 4.07394 16.7153 4.07394 17.2435C4.07394 17.7587 4.40121 18.0892 4.83541 18.0892C5.08815 18.0892 5.24044 17.9693 5.31821 17.8656H5.34737L5.38302 18.0568H5.72V15.7561H5.30525ZM4.90021 17.7295C4.65395 17.7295 4.4887 17.5351 4.4887 17.2435C4.4887 16.9583 4.65395 16.7639 4.90021 16.7639C5.14647 16.7639 5.30525 16.9583 5.30525 17.2435C5.30525 17.5351 5.14647 17.7295 4.90021 17.7295Z" fill="white"/>
<path d="M6.8722 18.0892C7.36149 18.0892 7.72764 17.7457 7.72764 17.2435C7.72764 16.7477 7.35825 16.4042 6.8722 16.4042C6.38616 16.4042 6.01677 16.7444 6.01677 17.2435C6.01677 17.7425 6.3894 18.0892 6.8722 18.0892ZM6.8722 17.7295C6.6065 17.7295 6.43153 17.5157 6.43153 17.2435C6.43153 16.9745 6.6065 16.7639 6.8722 16.7639C7.13791 16.7639 7.31612 16.9745 7.31612 17.2435C7.31612 17.5157 7.14115 17.7295 6.8722 17.7295Z" fill="white"/>
<path d="M8.28122 18.0568H8.73486L9.03945 17.0004H9.06537L9.36348 18.0568H9.81712L10.2546 16.4366H9.86896L9.59678 17.587H9.57086L9.26951 16.5403H8.83855L8.53396 17.5837H8.50804L8.23262 16.4366H7.85026L8.28122 18.0568Z" fill="white"/>
<path d="M10.4669 18.0568H10.8817V17.1787C10.8817 16.8903 11.0566 16.7639 11.2543 16.7639C11.4487 16.7639 11.601 16.8935 11.601 17.1592V18.0568H12.0158V17.075C12.0158 16.6505 11.7695 16.4042 11.3839 16.4042C11.1409 16.4042 11.0048 16.5014 10.9076 16.6278H10.8817L10.846 16.4366H10.4669V18.0568Z" fill="white"/>
<path d="M12.3782 18.0568H12.7929V15.7561H12.3782V18.0568Z" fill="white"/>
<path d="M13.9445 18.0892C14.4338 18.0892 14.7999 17.7457 14.7999 17.2435C14.7999 16.7477 14.4305 16.4042 13.9445 16.4042C13.4585 16.4042 13.0891 16.7444 13.0891 17.2435C13.0891 17.7425 13.4617 18.0892 13.9445 18.0892ZM13.9445 17.7295C13.6788 17.7295 13.5038 17.5157 13.5038 17.2435C13.5038 16.9745 13.6788 16.7639 13.9445 16.7639C14.2102 16.7639 14.3884 16.9745 14.3884 17.2435C14.3884 17.5157 14.2134 17.7295 13.9445 17.7295Z" fill="white"/>
<path d="M16.5902 17.7457C16.5125 17.7457 16.4736 17.7069 16.4736 17.6226V17.0296C16.4736 16.5954 16.1658 16.4042 15.7867 16.4042C15.3719 16.4042 15.1127 16.6407 15.0803 16.9778H15.495C15.521 16.8319 15.6117 16.7347 15.7867 16.7347C15.9454 16.7347 16.0588 16.8222 16.0588 17.0004V17.0685L15.5534 17.1203C15.2553 17.1495 15.0187 17.3018 15.0187 17.6129C15.0187 17.9337 15.2617 18.0892 15.5922 18.0892C15.8482 18.0892 16.0167 18.0017 16.1269 17.8624C16.182 18.0115 16.3019 18.0568 16.4542 18.0568H16.6291V17.7457H16.5902ZM16.0588 17.4314C16.0588 17.6874 15.8385 17.7717 15.6635 17.7717C15.5339 17.7717 15.4335 17.7263 15.4335 17.5967C15.4335 17.4703 15.5469 17.4087 15.6959 17.3925L16.0588 17.3536V17.4314Z" fill="white"/>
<path d="M18.0132 15.7561V16.5889C17.9258 16.4917 17.7637 16.4042 17.5434 16.4042C17.1189 16.4042 16.7819 16.7153 16.7819 17.2435C16.7819 17.7587 17.1092 18.0892 17.5434 18.0892C17.7961 18.0892 17.9484 17.9693 18.0262 17.8656H18.0554L18.091 18.0568H18.428V15.7561H18.0132ZM17.6082 17.7295C17.3619 17.7295 17.1967 17.5351 17.1967 17.2435C17.1967 16.9583 17.3619 16.7639 17.6082 16.7639C17.8545 16.7639 18.0132 16.9583 18.0132 17.2435C18.0132 17.5351 17.8545 17.7295 17.6082 17.7295Z" fill="white"/>
<path d="M19.4409 18.0892C19.7844 18.0892 20.0696 17.9402 20.0696 17.6064C20.0696 17.3018 19.8687 17.1722 19.5868 17.1009L19.4345 17.062C19.2789 17.0199 19.1688 16.9907 19.1688 16.8773C19.1688 16.7736 19.2562 16.712 19.3826 16.712C19.5349 16.712 19.6256 16.7833 19.6418 16.9H20.0404C20.0177 16.6343 19.8168 16.4042 19.3794 16.4042C19.0586 16.4042 18.7734 16.5759 18.7734 16.9C18.7734 17.2176 19.0197 17.305 19.2368 17.3569L19.3891 17.3958C19.5641 17.4411 19.6742 17.493 19.6742 17.6161C19.6742 17.7328 19.5641 17.7814 19.4377 17.7814C19.2724 17.7814 19.1428 17.7133 19.1201 17.5384H18.7216C18.7443 17.8721 18.9841 18.0892 19.4409 18.0892Z" fill="white"/>
</g>
<defs>
<clipPath id="clip0_205_2437">
<rect width="23.9987" height="24" fill="white"/>
</clipPath>
</defs>
</svg>
