<svg width="24" height="24" viewBox="0 0 24 24" fill="none" xmlns="http://www.w3.org/2000/svg">
<mask id="mask0_225_607" style="mask-type:alpha" maskUnits="userSpaceOnUse" x="0" y="0" width="24" height="24">
<path fill-rule="evenodd" clip-rule="evenodd" d="M24 0H-2.38419e-07V24H24V0Z" fill="white"/>
</mask>
<g mask="url(#mask0_225_607)">
<path fill-rule="evenodd" clip-rule="evenodd" d="M12 24C18.6274 24 24 18.6274 24 12C24 5.37253 18.6274 0 12 0C5.3726 0 -2.38419e-07 5.37253 -2.38419e-07 12C-2.38419e-07 18.6274 5.3726 24 12 24Z" fill="#483FDD"/>
</g>
<path fill-rule="evenodd" clip-rule="evenodd" d="M0 11.9957C0 5.36827 5.37254 -0.00439453 11.9999 -0.00439453C18.6273 -0.00439453 24 5.36827 24 11.9957C24 18.6231 18.6273 23.9956 11.9999 23.9956C5.37254 23.9956 0 18.6231 0 11.9957" fill="#483FDD"/>
<path fill-rule="evenodd" clip-rule="evenodd" d="M11.9777 17.9956C10.2034 17.9956 8.49275 17.2971 7.28441 16.0792C6.05911 14.8443 5.4571 13.2337 5.5894 11.5442C5.82266 8.5671 8.39893 6.18642 11.582 6.00652C12.6191 5.94801 13.6631 6.12549 14.6007 6.51995C14.9414 6.66334 15.0935 7.0381 14.9404 7.35723C14.7875 7.67637 14.387 7.81895 14.0465 7.67556C13.2969 7.36023 12.4952 7.22421 11.6634 7.27109C9.15354 7.41298 7.12223 9.28979 6.9384 11.637C6.83389 12.9713 7.30864 14.2427 8.27511 15.2168C9.22855 16.1776 10.578 16.7287 11.9777 16.7287C12.0501 16.7287 12.1223 16.7274 12.194 16.7245C12.5643 16.7095 12.8826 16.9806 12.8987 17.3302C12.9147 17.6797 12.6252 17.9752 12.2519 17.9902C12.1612 17.9939 12.0697 17.9956 11.9777 17.9956" fill="#5CD6C0"/>
<path fill-rule="evenodd" clip-rule="evenodd" d="M15.2402 17.1384C15.0459 17.1384 14.8534 17.0521 14.7213 16.8854C14.4884 16.5918 14.5318 16.16 14.8182 15.9212C15.9908 14.943 16.6633 13.494 16.6633 11.9457C16.6633 10.9661 16.3931 10.0141 15.8816 9.19293C15.6829 8.87389 15.774 8.45016 16.0851 8.24627C16.3962 8.04251 16.8095 8.13598 17.0081 8.45502C17.6571 9.49702 18 10.7041 18 11.9457C18 13.9084 17.1477 15.745 15.6615 16.9848C15.5376 17.0881 15.3883 17.1384 15.2402 17.1384" fill="white"/>
<path fill-rule="evenodd" clip-rule="evenodd" d="M20.357 13.2813C20.0019 13.2813 19.714 12.9699 19.714 12.5857C19.714 8.06485 16.3142 4.38687 12.1355 4.38687C10.9071 4.38687 9.73558 4.69459 8.65324 5.30143C8.33829 5.47825 7.95004 5.34506 7.7866 5.00395C7.62316 4.66284 7.74627 4.24306 8.06157 4.06624C9.31062 3.36593 10.7194 2.99561 12.1355 2.99561C17.0234 2.99561 21 7.29764 21 12.5857C21 12.9699 20.7122 13.2813 20.357 13.2813" fill="#5CD6C0"/>
<path fill-rule="evenodd" clip-rule="evenodd" d="M11.7636 20.9956C6.93081 20.9956 3 16.959 3 11.9971C3 9.89155 3.72297 7.84332 5.0359 6.2298C5.2609 5.95328 5.6618 5.91626 5.93118 6.14744C6.20056 6.37862 6.23639 6.79031 6.01138 7.06694C4.88913 8.44596 4.27121 10.1969 4.27121 11.9971C4.27121 16.2391 7.63183 19.6902 11.7626 19.6902C13.8772 19.6902 15.9029 18.7663 17.3216 17.1554C17.557 16.888 17.959 16.8672 18.2193 17.1091C18.4796 17.3508 18.4999 17.7636 18.2643 18.031C16.6052 19.9151 14.2358 20.9956 11.7636 20.9956" fill="white"/>
</svg>
