<svg width="24" height="24" viewBox="0 0 24 24" fill="none" xmlns="http://www.w3.org/2000/svg">
<g clip-path="url(#clip0_205_2284)">
<circle cx="12" cy="12" r="12" fill="#483FDD"/>
<mask id="mask0_205_2284" style="mask-type:alpha" maskUnits="userSpaceOnUse" x="0" y="0" width="24" height="24">
<circle cx="12" cy="12" r="12" fill="#483FDD"/>
</mask>
<g mask="url(#mask0_205_2284)">
<rect x="5" y="5" width="13.75" height="21.5" rx="1.5" fill="#5CD6C0" stroke="white"/>
</g>
<path d="M8.5 5.5H15.5C15.5 6.60457 14.6046 7.5 13.5 7.5H10.5C9.39543 7.5 8.5 6.60457 8.5 5.5Z" fill="white"/>
<path fill-rule="evenodd" clip-rule="evenodd" d="M8.97972 11.1896C9.39551 9.87288 10.843 9.18753 12.125 9.70034C13.2571 9.19421 14.5775 9.78744 14.9509 10.97L15.5921 13.0003H16.25C16.8023 13.0003 17.25 13.4481 17.25 14.0003C17.25 14.5526 16.8023 15.0003 16.25 15.0003H7.75C7.19772 15.0003 6.75 14.5526 6.75 14.0003C6.75 13.4481 7.19772 13.0003 7.75 13.0003H8.40789L8.97972 11.1896ZM11.6387 17.4558C11.3125 17.9384 10.7951 18.2502 10.2127 18.2502C9.90591 18.2502 9.61719 18.1637 9.36494 18.0114C8.37923 17.4159 9.35911 16.2502 10.5107 16.2502H11.9998H12H13.4893C14.6408 16.2502 15.6206 17.4157 14.6351 18.0112C14.3828 18.1637 14.094 18.2502 13.7871 18.2502C13.2047 18.2502 12.6873 17.9384 12.3611 17.4558C12.2788 17.3341 12.1468 17.2502 11.9999 17.2502C11.853 17.2502 11.721 17.3341 11.6387 17.4558Z" fill="#151D51"/>
</g>
<defs>
<clipPath id="clip0_205_2284">
<rect width="24" height="24" fill="white"/>
</clipPath>
</defs>
</svg>
