<svg width="27" height="24" viewBox="0 0 27 24" fill="none" xmlns="http://www.w3.org/2000/svg">
<g clip-path="url(#clip0_205_2427)">
<ellipse cx="13.4941" cy="12" rx="12" ry="11.9104" transform="rotate(90 13.4941 12)" fill="#6C1DA0"/>
<ellipse cx="13.4938" cy="11.9998" rx="10.2522" ry="10.1757" transform="rotate(90 13.4938 11.9998)" fill="#7C42D5"/>
<rect y="9" width="27" height="6" rx="2.10526" fill="#6C1DA0"/>
<path d="M4.60183 10.7207H3.93595L3.34496 12.2592L2.75234 10.7207H2.08646V13H2.5407V11.2922L3.10401 12.7802H3.58429L4.1476 11.2791V13H4.60183V10.7207ZM6.20757 10.6784C5.50587 10.6784 5.01094 11.1798 5.01094 11.8604C5.01094 12.5409 5.50587 13.0423 6.20757 13.0423C6.90927 13.0423 7.40583 12.5409 7.40583 11.8604C7.40583 11.1798 6.90927 10.6784 6.20757 10.6784ZM6.20757 11.1147C6.62761 11.1147 6.93043 11.4175 6.93043 11.8604C6.93043 12.3032 6.62761 12.606 6.20757 12.606C5.78915 12.606 5.4847 12.3032 5.4847 11.8604C5.4847 11.4175 5.78915 11.1147 6.20757 11.1147ZM9.85167 10.7207H9.39581V12.2429L8.23825 10.7207H7.81333V13H8.26756L8.26919 11.4778L9.42512 13H9.85167V10.7207ZM12.0729 12.5832H10.8241V12.059H12.0029V11.6422H10.8241V11.1375H12.0598V10.7207H10.3699V13H12.0729V12.5832ZM14.4873 10.7207H13.9696L13.3965 11.6878L12.8235 10.7207H12.2895L13.167 12.0997V13H13.6212V12.1013L14.4873 10.7207ZM15.4894 10.7207V13H16.476C17.0231 13 17.334 12.7851 17.334 12.3471C17.334 12.1013 17.1631 11.9059 16.9547 11.8359C17.1452 11.7659 17.2852 11.582 17.2852 11.3524C17.2852 10.9177 16.9514 10.7207 16.4207 10.7207H15.4894ZM16.4532 12.0525C16.704 12.0525 16.8619 12.1111 16.8619 12.3244C16.8619 12.5425 16.704 12.6011 16.4532 12.6011L15.9437 12.5995V12.0525H16.4532ZM16.4077 11.1212C16.6323 11.1212 16.8114 11.17 16.8114 11.385C16.8114 11.6064 16.6356 11.6536 16.4093 11.6536H15.9437V11.1212H16.4077ZM18.9219 10.7207H18.3684L17.4811 13H17.9549L18.1535 12.4692H19.1254L19.3241 13H19.8092L18.9219 10.7207ZM18.6403 11.17L18.9691 12.0508H18.3098L18.6403 11.17ZM21.086 10.6784C20.3843 10.6784 19.8893 11.1749 19.8893 11.8604C19.8893 12.5458 20.3843 13.0423 21.086 13.0423C21.5027 13.0423 21.8463 12.8567 22.0482 12.5604L21.677 12.2934C21.5402 12.492 21.3351 12.606 21.0827 12.606C20.6806 12.606 20.3647 12.3178 20.3631 11.8604C20.3631 11.4175 20.6692 11.1147 21.0827 11.1147C21.3367 11.1147 21.5435 11.2319 21.6721 11.4289L22.0628 11.1896C21.8772 10.8705 21.506 10.6784 21.086 10.6784ZM23.9315 13H24.5208L23.4935 11.8327L24.4492 10.7207H23.8794L23.1256 11.6438H22.9107V10.7207H22.4564V13H22.9107V12.0622H23.1207L23.9315 13Z" fill="white"/>
<path fill-rule="evenodd" clip-rule="evenodd" d="M8.122 16.659C8.06175 16.5723 7.98465 16.4986 7.89528 16.4423C7.80592 16.3859 7.70612 16.3481 7.60181 16.3311C7.49751 16.314 7.39083 16.318 7.28812 16.343C7.18541 16.3679 7.08877 16.4132 7.00395 16.4761C6.91913 16.539 6.84786 16.6184 6.79438 16.7094C6.7409 16.8004 6.7063 16.9012 6.69264 17.0058C6.67899 17.1104 6.68655 17.2167 6.71488 17.3183C6.74321 17.42 6.79172 17.5149 6.85755 17.5974C6.91647 17.6784 6.99147 17.7464 7.07787 17.7972C7.16428 17.848 7.26024 17.8805 7.35978 17.8927C7.45932 17.9048 7.56031 17.8964 7.65644 17.8679C7.75257 17.8394 7.8418 17.7915 7.91855 17.727C7.94896 17.7043 7.97787 17.6796 8.00512 17.6531L7.56748 17.0712L7.34325 17.2384L7.56488 17.5339C7.48569 17.5714 7.39521 17.5776 7.31166 17.5511C7.22811 17.5246 7.15772 17.4676 7.11469 17.3913C7.05282 17.2952 7.02971 17.1793 7.05003 17.0669C7.07034 16.9544 7.13256 16.8538 7.22417 16.7854C7.31577 16.7169 7.42997 16.6855 7.54378 16.6977C7.65759 16.7098 7.76257 16.7646 7.83759 16.8508C7.87523 16.898 7.90242 16.9525 7.91735 17.0109C7.93227 17.0693 7.9346 17.1302 7.92417 17.1896L8.2826 17.244C8.29769 17.1407 8.29122 17.0354 8.26358 16.9347C8.23594 16.8341 8.18774 16.7402 8.122 16.659ZM9.76694 18.1362L9.47171 17.9253L8.95227 18.6473C8.9317 18.6849 8.90337 18.7176 8.86917 18.7435C8.83497 18.7693 8.79568 18.7876 8.75387 18.7971C8.71206 18.8066 8.6687 18.8072 8.62665 18.7988C8.58461 18.7903 8.54485 18.7731 8.50998 18.7482C8.47511 18.7232 8.44594 18.6912 8.42439 18.6542C8.40284 18.6172 8.38941 18.5761 8.38498 18.5335C8.38055 18.4909 8.38523 18.4479 8.39869 18.4073C8.41216 18.3666 8.43411 18.3293 8.46311 18.2978L8.98257 17.5758L8.68734 17.3645L8.15836 18.099C8.05583 18.2423 8.01452 18.4203 8.0435 18.5939C8.07249 18.7676 8.1694 18.9226 8.31291 19.0249C8.45641 19.1272 8.63476 19.1685 8.80873 19.1395C8.9827 19.1106 9.13803 19.0139 9.24056 18.8707L9.76694 18.1362ZM10.8413 18.5864L10.4405 18.4257L9.33189 19.609L9.68253 19.7495L9.90807 19.498L10.4665 19.7218L10.4539 20.0588L10.8115 20.2022L10.8413 18.5864ZM10.5028 18.8365L10.4821 19.3775L10.1405 19.2405L10.5028 18.8365ZM11.6742 18.8594L11.3842 20.3483L11.7409 20.417L11.8491 19.8596L11.9015 19.8696L12.1872 20.5025L12.6123 20.5842L12.2937 19.9361C12.4085 19.9522 12.5252 19.9233 12.6192 19.8554C12.7131 19.7875 12.7771 19.6859 12.7975 19.5719C12.8122 19.5015 12.811 19.4287 12.7941 19.3587C12.7772 19.2888 12.7449 19.2235 12.6997 19.1675C12.6544 19.1115 12.5973 19.0662 12.5324 19.0349C12.4675 19.0036 12.3965 18.9871 12.3244 18.9865L11.6742 18.8594ZM12.2573 19.3057C12.2828 19.3035 12.3084 19.3072 12.3321 19.3166C12.3559 19.3259 12.3771 19.3407 12.3942 19.3596C12.4113 19.3786 12.4237 19.4012 12.4306 19.4258C12.4374 19.4504 12.4384 19.4762 12.4335 19.5012C12.4286 19.5262 12.418 19.5498 12.4024 19.57C12.3869 19.5902 12.3668 19.6065 12.3439 19.6177C12.3209 19.6289 12.2957 19.6346 12.2701 19.6343C12.2446 19.6341 12.2195 19.628 12.1967 19.6164L11.9075 19.5607L11.9681 19.25L12.2573 19.3057ZM14.1585 19.1912L13.7256 19.1796L13.1006 20.6753L13.4789 20.6857L13.6031 20.3712L14.2057 20.388L14.3117 20.7086L14.6979 20.719L14.1585 19.1912ZM13.9282 19.5438L14.0979 20.0584L13.7291 20.0484L13.9282 19.5438ZM16.3182 18.8456L15.9632 18.9294L16.1766 19.8303L15.287 19.0889L14.9481 19.1688L15.2979 20.6455L15.6519 20.5621L15.4385 19.6613L16.3281 20.4027L16.6683 20.3228L16.3182 18.8456ZM17.6207 18.1975L16.5095 18.7834L16.6662 19.0785L17.0627 18.8694L17.6138 19.9063L17.9328 19.7378L17.3822 18.7009L17.7774 18.4922L17.6207 18.1975ZM19.4951 18.1803L18.8916 18.6987L18.7111 18.4905L19.2765 18.0053L19.0652 17.7612L18.4999 18.2464L18.3297 18.0493L18.9297 17.5343L18.718 17.2894L17.8445 18.039L18.8289 19.177L19.7054 18.4244L19.4951 18.1803ZM20.6387 16.8158L20.1448 17.4427L19.9284 17.2721L20.3907 16.6849L20.1353 16.4853L19.6725 17.0725L19.4661 16.9113L19.9574 16.2879L19.7011 16.0874L18.986 16.9947L20.1794 17.9271L20.895 17.0167L20.6387 16.8158Z" fill="white"/>
<path fill-rule="evenodd" clip-rule="evenodd" d="M6.43575 6.3575C6.36602 6.43853 6.3148 6.53279 6.28542 6.63413C6.25603 6.73548 6.24915 6.84165 6.2652 6.94576C6.28125 7.04986 6.31989 7.14957 6.3786 7.23841C6.43732 7.32725 6.51478 7.40322 6.60598 7.46141C6.69395 7.52474 6.79441 7.57017 6.90122 7.59493C7.00802 7.61968 7.11893 7.62323 7.22718 7.60537C7.33543 7.58752 7.43874 7.54861 7.53081 7.49105C7.62288 7.43349 7.70178 7.35848 7.76267 7.27059C7.82521 7.19158 7.86989 7.10088 7.89386 7.00428C7.91784 6.90768 7.92058 6.80731 7.9019 6.7096C7.88322 6.61189 7.84352 6.51901 7.78537 6.43688C7.72722 6.35475 7.65189 6.2852 7.5642 6.23267C7.53225 6.21042 7.49864 6.19047 7.46364 6.17296L7.01694 6.7577L7.25308 6.91954L7.47891 6.62289C7.54056 6.68634 7.57454 6.77011 7.57386 6.85692C7.57319 6.94373 7.53791 7.02696 7.47528 7.08943C7.43959 7.13646 7.39419 7.1759 7.34192 7.20528C7.28965 7.23466 7.23164 7.25335 7.1715 7.26018C7.11136 7.26701 7.05039 7.26183 6.99241 7.24497C6.93443 7.22812 6.88069 7.19994 6.83453 7.1622C6.7836 7.13294 6.73963 7.0937 6.7055 7.04702C6.67136 7.00035 6.64783 6.94729 6.63642 6.8913C6.625 6.83532 6.62597 6.77765 6.63925 6.72207C6.65253 6.66648 6.67784 6.61422 6.71352 6.56868C6.74905 6.51877 6.79514 6.47665 6.84877 6.44506C6.9024 6.41347 6.96237 6.39313 7.02475 6.38537L6.96895 6.03146C6.86163 6.04795 6.75897 6.08538 6.66727 6.14145C6.57558 6.19752 6.49679 6.27104 6.43575 6.3575ZM8.41713 4.51632L8.12565 4.74709L8.71945 5.42261C8.75066 5.45052 8.77486 5.48489 8.79022 5.52312C8.80558 5.56135 8.81169 5.60244 8.8081 5.64327C8.8045 5.6841 8.7913 5.72359 8.76949 5.75877C8.74767 5.79395 8.71781 5.82389 8.68217 5.84631C8.65201 5.87579 8.61539 5.89841 8.57497 5.91252C8.53454 5.92663 8.49134 5.93187 8.44853 5.92787C8.40571 5.92386 8.36436 5.91071 8.3275 5.88937C8.29063 5.86802 8.25917 5.83903 8.23544 5.80451L7.64208 5.129L7.35104 5.35934L7.95371 6.04568C8.00746 6.11718 8.07688 6.17644 8.15705 6.2193C8.23722 6.26216 8.3262 6.28755 8.41767 6.29369C8.50914 6.29982 8.60088 6.28656 8.6864 6.25482C8.77193 6.22308 8.84915 6.17364 8.9126 6.11001C8.98981 6.06336 9.05508 6.00057 9.10357 5.92629C9.15207 5.85202 9.18253 5.76819 9.1927 5.68101C9.20287 5.59383 9.19249 5.50556 9.16232 5.42274C9.13216 5.33993 9.08299 5.2647 9.01846 5.20265L8.41713 4.51632ZM9.77778 3.79604L9.37396 3.98463L9.51977 5.58503L9.87423 5.42012L9.83658 5.08699L10.4015 4.8244L10.6545 5.05732L11.0161 4.88817L9.77778 3.79604ZM9.73565 4.21153L10.1414 4.58498L9.79587 4.74566L9.73565 4.21153ZM10.8338 3.38167L11.1913 4.84655L11.5603 4.76346L11.4264 4.21456L11.4806 4.20252L12.022 4.66003L12.4618 4.56202L11.881 4.10204C11.9968 4.07118 12.0955 3.99815 12.1562 3.89845C12.2169 3.79875 12.2348 3.68021 12.2062 3.56795C12.1895 3.49781 12.1569 3.43208 12.1107 3.37545C12.0645 3.31882 12.0059 3.2727 11.939 3.24037C11.8722 3.20804 11.7988 3.19032 11.724 3.18846C11.6492 3.18659 11.5749 3.20063 11.5065 3.22959L10.8338 3.38167ZM11.5796 3.54967C11.6026 3.53691 11.6284 3.52951 11.6549 3.52806C11.6814 3.52661 11.7079 3.53116 11.7323 3.54133C11.7567 3.5515 11.7783 3.56701 11.7953 3.58663C11.8124 3.60625 11.8244 3.62943 11.8305 3.65432C11.8366 3.6792 11.8365 3.70511 11.8303 3.72996C11.8241 3.75481 11.812 3.77792 11.7948 3.79743C11.7777 3.81695 11.756 3.83233 11.7316 3.84235C11.7071 3.85237 11.6806 3.85675 11.6541 3.85514L11.3545 3.92201L11.28 3.61654L11.5796 3.54967ZM13.632 3.03653L13.1809 3.03296L12.5621 4.53315L12.9569 4.53626L13.0791 4.22159L13.7077 4.22355L13.825 4.53925L14.2274 4.54243L13.632 3.03653ZM13.3999 3.39204L13.5882 3.8988L13.2037 3.89576L13.3999 3.39204ZM16.2231 3.44831L15.8549 3.35939L15.6137 4.25064L15.1535 3.19088L14.8018 3.10683L14.4064 4.56835L14.7737 4.65726L15.0149 3.76558L15.4751 4.82534L15.8277 4.90983L16.2231 3.44831ZM17.9123 4.21934L16.7441 3.65109L16.5831 3.94696L17 4.14978L16.4348 5.1907L16.7702 5.35374L17.3358 4.31283L17.7513 4.51478L17.9123 4.21934ZM18.4974 6.13669L17.8494 5.6392L18.0326 5.42563L18.6387 5.89226L18.8535 5.64197L18.2473 5.17534L18.4206 4.97331L19.0641 5.46862L19.2797 5.21747L18.3429 4.49624L17.3414 5.66529L18.2817 6.38913L18.4974 6.13669ZM19.5006 7.27643L18.981 6.65912L19.2059 6.48888L19.6931 7.06681L19.9585 6.8655L19.4712 6.28758L19.6853 6.125L20.2022 6.73885L20.4685 6.53669L19.7154 5.64319L18.4773 6.58376L19.2326 7.48029L19.5006 7.27643Z" fill="white"/>
</g>
<defs>
<clipPath id="clip0_205_2427">
<rect width="27" height="24" fill="white"/>
</clipPath>
</defs>
</svg>
