<svg width="24" height="24" viewBox="0 0 24 24" fill="none" xmlns="http://www.w3.org/2000/svg">
<mask id="mask0_225_627" style="mask-type:alpha" maskUnits="userSpaceOnUse" x="0" y="0" width="24" height="24">
<path fill-rule="evenodd" clip-rule="evenodd" d="M24 0H-2.38419e-07V24H24V0Z" fill="white"/>
</mask>
<g mask="url(#mask0_225_627)">
<path fill-rule="evenodd" clip-rule="evenodd" d="M12 24C18.6274 24 24 18.6274 24 12C24 5.37253 18.6274 0 12 0C5.3726 0 -2.38419e-07 5.37253 -2.38419e-07 12C-2.38419e-07 18.6274 5.3726 24 12 24Z" fill="#483FDD"/>
</g>
<path fill-rule="evenodd" clip-rule="evenodd" d="M10.6253 18.0376C10.6253 18.6991 11.152 19.2353 11.8017 19.2353C12.4513 19.2353 12.978 18.6991 12.978 18.0376C12.978 17.3761 12.4513 16.8398 11.8017 16.8398C11.152 16.8398 10.6253 17.3761 10.6253 18.0376" fill="white"/>
<path fill-rule="evenodd" clip-rule="evenodd" d="M5.79587 8.7246L6.10321 8.41649L6.10272 8.41607C6.11558 8.40322 6.12869 8.39097 6.14148 8.37821C7.60091 6.93466 9.47243 6.16193 11.3735 6.05976C11.6629 6.04421 11.9532 6.04421 12.2427 6.05976C14.1431 6.16184 16.0142 6.93432 17.4734 8.37711C17.4866 8.39012 17.5002 8.4028 17.5134 8.41607L17.5129 8.41649L17.8202 8.7246C18.1615 9.0666 18.1615 9.62629 17.8202 9.96838L15.9586 11.834C15.9484 11.8454 15.9389 11.857 15.928 11.868L12.4302 15.3736C12.2591 15.545 12.0335 15.6304 11.8081 15.63C11.5826 15.6304 11.357 15.545 11.1859 15.3736L7.68814 11.868C7.67735 11.8572 7.66789 11.8456 7.65777 11.8343L5.79587 9.96838C5.45458 9.62629 5.45458 9.0666 5.79587 8.7246" fill="#5CD6C0"/>
<path fill-rule="evenodd" clip-rule="evenodd" d="M5.79587 8.7246L6.10321 8.41649L6.10272 8.41607C6.11558 8.40322 6.12869 8.39097 6.14148 8.37821C7.60091 6.93466 9.47243 6.16193 11.3735 6.05976C11.6629 6.04421 11.9532 6.04421 12.2427 6.05976C14.1431 6.16184 16.0142 6.93432 17.4734 8.37711C17.4866 8.39012 17.5002 8.4028 17.5134 8.41607L17.5129 8.41649L17.8202 8.7246C18.1615 9.0666 18.1615 9.62629 17.8202 9.96838L15.9586 11.834C15.9484 11.8454 15.9389 11.857 15.928 11.868L12.4302 15.3736C12.2591 15.545 12.0335 15.6304 11.8081 15.63C11.5826 15.6304 11.357 15.545 11.1859 15.3736L7.68814 11.868C7.67735 11.8572 7.66789 11.8456 7.65777 11.8343L5.79587 9.96838C5.45458 9.62629 5.45458 9.0666 5.79587 8.7246" fill="#5CD6C0"/>
<mask id="mask1_225_627" style="mask-type:alpha" maskUnits="userSpaceOnUse" x="5" y="6" width="13" height="10">
<path fill-rule="evenodd" clip-rule="evenodd" d="M12.2358 6.06125C14.1081 6.1657 15.9514 6.95609 17.3891 8.43224V8.43224C17.4021 8.44564 17.4154 8.4587 17.4283 8.47218V8.47218L17.4278 8.47262L17.7306 8.78787C18.0669 9.1378 18.0669 9.71047 17.7306 10.0605V10.0605L15.8967 11.9693C15.8866 11.981 15.8772 11.993 15.8666 12.0042V12.0042L12.4206 15.5909C12.252 15.7664 12.0297 15.8538 11.8077 15.8534V15.8534C11.5855 15.8538 11.3633 15.7664 11.1948 15.5909V15.5909L7.74883 12.0042C7.7382 11.9932 7.72888 11.9812 7.71891 11.9697V11.9697L5.88463 10.0605C5.5484 9.71047 5.5484 9.1378 5.88463 8.78787V8.78787L6.18741 8.47262L6.187 8.47218C6.19959 8.45904 6.21251 8.4465 6.22511 8.43353V8.43353C7.6629 6.95652 9.50666 6.16579 11.3795 6.06125V6.06125C11.5221 6.05329 11.6649 6.04932 11.8077 6.04932V6.04932C11.9504 6.04932 12.0932 6.05329 12.2358 6.06125" fill="white"/>
</mask>
<g mask="url(#mask1_225_627)">
<path fill-rule="evenodd" clip-rule="evenodd" d="M6.61288 10.6295L6.87846 10.3531L6.87805 10.3527C6.88909 10.3412 6.90045 10.3301 6.91149 10.3187C8.17242 9.02342 9.78952 8.32988 11.432 8.23822C11.6821 8.2243 11.9328 8.2243 12.1829 8.23822C13.8249 8.32979 15.4415 9.02299 16.7023 10.3176C16.7137 10.3293 16.7254 10.3407 16.7368 10.3527L16.7364 10.3531L17.0019 10.6295C17.2968 10.9364 17.2968 11.4385 17.0019 11.7455L15.3936 13.4197C15.3847 13.4298 15.3765 13.4404 15.3671 13.4502L12.345 16.5959C12.1972 16.7496 12.0022 16.8263 11.8074 16.826C11.6126 16.8263 11.4177 16.7496 11.2699 16.5959L8.24781 13.4502C8.23849 13.4405 8.23023 13.4301 8.22156 13.4199L6.61288 11.7455C6.31811 11.4385 6.31811 10.9364 6.61288 10.6295" fill="white"/>
</g>
<mask id="mask2_225_627" style="mask-type:alpha" maskUnits="userSpaceOnUse" x="5" y="6" width="13" height="10">
<path fill-rule="evenodd" clip-rule="evenodd" d="M12.2358 6.06125C14.1081 6.1657 15.9514 6.95609 17.3891 8.43224V8.43224C17.4021 8.44564 17.4154 8.4587 17.4283 8.47218V8.47218L17.4278 8.47262L17.7306 8.78787C18.0669 9.1378 18.0669 9.71047 17.7306 10.0605V10.0605L15.8967 11.9693C15.8866 11.981 15.8772 11.993 15.8666 12.0042V12.0042L12.4206 15.5909C12.252 15.7664 12.0297 15.8538 11.8077 15.8534V15.8534C11.5855 15.8538 11.3633 15.7664 11.1948 15.5909V15.5909L7.74883 12.0042C7.7382 11.9932 7.72888 11.9812 7.71891 11.9697V11.9697L5.88463 10.0605C5.5484 9.71047 5.5484 9.1378 5.88463 8.78787V8.78787L6.18741 8.47262L6.187 8.47218C6.19959 8.45904 6.21251 8.4465 6.22511 8.43353V8.43353C7.6629 6.95652 9.50666 6.16579 11.3795 6.06125V6.06125C11.5221 6.05329 11.6649 6.04932 11.8077 6.04932V6.04932C11.9504 6.04932 12.0932 6.05329 12.2358 6.06125" fill="white"/>
</mask>
<g mask="url(#mask2_225_627)">
<path fill-rule="evenodd" clip-rule="evenodd" d="M8.12356 12.4312L8.31195 12.2351L8.31163 12.2348C8.31947 12.2267 8.32749 12.2188 8.33534 12.2108C9.22962 11.292 10.3766 10.8002 11.5415 10.7352C11.7189 10.7253 11.8968 10.7253 12.074 10.7352C13.2387 10.8002 14.3853 11.2917 15.2796 12.21C15.2877 12.2183 15.2959 12.2264 15.3039 12.2348L15.3037 12.2351L15.492 12.4312C15.7011 12.6489 15.7011 13.0051 15.492 13.2227L14.3513 14.4101C14.345 14.4174 14.3392 14.4249 14.3325 14.4318L12.189 16.6628C12.0842 16.772 11.946 16.8264 11.8078 16.8261C11.6696 16.8264 11.5314 16.772 11.4266 16.6628L9.28318 14.4318C9.27656 14.4249 9.27067 14.4176 9.26445 14.4104L8.12356 13.2227C7.9144 13.0051 7.9144 12.6489 8.12356 12.4312" fill="#5CD6C0"/>
</g>
<mask id="mask3_225_627" style="mask-type:alpha" maskUnits="userSpaceOnUse" x="0" y="-1" width="24" height="25">
<path fill-rule="evenodd" clip-rule="evenodd" d="M24 -0.00439453H-2.31266e-05V23.9956H24V-0.00439453Z" fill="white"/>
</mask>
<g mask="url(#mask3_225_627)">
<path fill-rule="evenodd" clip-rule="evenodd" d="M11.9999 23.9956C18.6274 23.9956 24 18.623 24 11.9956C24 5.36814 18.6274 -0.00439453 11.9999 -0.00439453C5.37258 -0.00439453 -2.31266e-05 5.36814 -2.31266e-05 11.9956C-2.31266e-05 18.623 5.37258 23.9956 11.9999 23.9956Z" fill="#483FDD"/>
<path fill-rule="evenodd" clip-rule="evenodd" d="M11.995 8.83561C10.3823 8.83561 9.07495 7.52821 9.07495 5.91554C9.07495 4.30286 10.3823 2.99561 11.995 2.99561C13.6076 2.99561 14.915 4.30286 14.915 5.91554C14.915 7.52821 13.6076 8.83561 11.995 8.83561" fill="#5CD6C0"/>
<path fill-rule="evenodd" clip-rule="evenodd" d="M4.72508 11.7522C4.67946 11.7522 4.63303 11.7483 4.58646 11.7401C4.17878 11.668 3.90973 11.2965 3.98581 10.9102C4.31577 9.23357 5.25239 7.69352 6.62304 6.57364C6.93716 6.31699 7.41148 6.3501 7.68244 6.64763C7.9534 6.94516 7.91844 7.39444 7.60432 7.65109C6.49097 8.56076 5.73039 9.81091 5.46257 11.171C5.39524 11.5133 5.07976 11.7522 4.72508 11.7522" fill="white"/>
<path fill-rule="evenodd" clip-rule="evenodd" d="M19.2906 11.7522C18.9492 11.7522 18.6432 11.5196 18.5711 11.1814C18.2778 9.80553 17.5077 8.55848 16.4024 7.66959C16.0891 7.41758 16.045 6.96604 16.3036 6.66115C16.5625 6.35599 17.026 6.31301 17.3393 6.5649C18.7016 7.66048 19.6506 9.19653 20.0116 10.8902C20.0941 11.2775 19.8387 11.6568 19.4409 11.7371C19.3905 11.7473 19.3402 11.7522 19.2906 11.7522" fill="white"/>
<path fill-rule="evenodd" clip-rule="evenodd" d="M11.759 20.0226C10.9259 20.0226 10.0915 19.8667 9.29615 19.5545C8.93764 19.4138 8.75037 18.979 8.87789 18.5834C9.00528 18.1878 9.39937 17.9811 9.75776 18.1218C11.0511 18.6292 12.4704 18.629 13.7542 18.1214C14.112 17.9799 14.5068 18.1853 14.6352 18.5806C14.7634 18.976 14.5772 19.4112 14.219 19.5529C13.4271 19.866 12.5937 20.0226 11.759 20.0226" fill="white"/>
<path fill-rule="evenodd" clip-rule="evenodd" d="M18.0811 18.5629C16.469 18.5629 15.1621 17.256 15.1621 15.6441C15.1621 14.032 16.469 12.7251 18.0811 12.7251C19.6931 12.7251 21 14.032 21 15.6441C21 17.256 19.6931 18.5629 18.0811 18.5629" fill="#5CD6C0"/>
<path fill-rule="evenodd" clip-rule="evenodd" d="M5.91892 18.5629C4.30687 18.5629 3 17.256 3 15.6441C3 14.032 4.30687 12.7251 5.91892 12.7251C7.53097 12.7251 8.83784 14.032 8.83784 15.6441C8.83784 17.256 7.53097 18.5629 5.91892 18.5629" fill="#5CD6C0"/>
</g>
</svg>
